<?xml version="1.0" encoding="iso-8859-1"?>
<!-- Generator: Adobe Illustrator 19.0.0, SVG Export Plug-In . SVG Version: 6.00 Build 0)  -->
<svg version="1.1" id="Layer_1" xmlns="http://www.w3.org/2000/svg" xmlns:xlink="http://www.w3.org/1999/xlink" x="0px" y="0px"
	 viewBox="0 0 512 512" style="enable-background:new 0 0 512 512;" xml:space="preserve">
<g>
	<g>
		<path d="M256,0c-4.15,0-7.515,3.365-7.515,7.515v26.051c0,4.15,3.365,7.515,7.515,7.515s7.515-3.365,7.515-7.515V7.515
			C263.515,3.365,260.15,0,256,0z"/>
	</g>
</g>
<g>
	<g>
		<path d="M354.105,19.544c-3.833-1.591-8.23,0.228-9.82,4.061l-9.984,24.062c-1.59,3.833,0.227,8.231,4.061,9.821
			c0.942,0.391,1.917,0.576,2.877,0.576c2.947,0,5.744-1.745,6.944-4.637l9.984-24.062
			C359.756,25.532,357.938,21.135,354.105,19.544z"/>
	</g>
</g>
<g>
	<g>
		<path d="M437.23,75.193c-2.932-2.938-7.69-2.944-10.628-0.012L408.16,93.58c-2.938,2.932-2.944,7.689-0.012,10.628
			c1.468,1.47,3.394,2.206,5.32,2.206c1.921,0,3.841-0.731,5.307-2.194l18.442-18.399C440.156,82.889,440.162,78.132,437.23,75.193z
			"/>
	</g>
</g>
<g>
	<g>
		<path d="M504.494,248.776l-26.051-0.031c-0.003,0-0.006,0-0.009,0c-4.146,0-7.51,3.36-7.515,7.507
			c-0.005,4.15,3.356,7.519,7.506,7.523l26.051,0.031c0.003,0,0.006,0,0.009,0c4.146,0,7.51-3.36,7.515-7.506
			C512.005,252.148,508.644,248.78,504.494,248.776z"/>
	</g>
</g>
<g>
	<g>
		<path d="M488.188,344.826l-24.039-10.04c-3.828-1.599-8.23,0.208-9.83,4.038c-1.599,3.829,0.208,8.231,4.039,9.83l24.039,10.04
			c0.946,0.396,1.928,0.583,2.893,0.583c2.941,0,5.733-1.737,6.938-4.621C493.826,350.826,492.018,346.426,488.188,344.826z"/>
	</g>
</g>
<g>
	<g>
		<path d="M436.622,426.814l-18.378-18.464c-2.928-2.942-7.686-2.953-10.627-0.024c-0.03,0.03-0.055,0.063-0.085,0.094
			c-0.03,0.029-0.063,0.053-0.092,0.083c-2.945,2.925-2.962,7.682-0.037,10.628c0,0,18.335,18.463,18.357,18.485
			c1.404,1.415,3.367,2.123,5.329,2.124c1.947,0.001,3.894-0.695,5.296-2.088c0.035-0.035,0.065-0.074,0.1-0.11
			c0.036-0.035,0.076-0.064,0.112-0.1C439.539,434.514,439.551,429.755,436.622,426.814z"/>
	</g>
</g>
<g>
	<g>
		<path d="M357.373,482.99l-9.899-24.097c-1.577-3.84-5.968-5.673-9.807-4.095c-0.039,0.016-0.075,0.037-0.114,0.054
			c-0.039,0.015-0.079,0.025-0.118,0.041c-3.841,1.573-5.679,5.962-4.107,9.802l9.871,24.109c1.192,2.909,3.998,4.669,6.959,4.669
			c0.948,0,1.913-0.181,2.845-0.563c0.046-0.019,0.087-0.042,0.133-0.062c0.048-0.019,0.096-0.031,0.143-0.051
			C357.116,491.22,358.95,486.83,357.373,482.99z"/>
	</g>
</g>
<g>
	<g>
		<path d="M177.699,47.667l-9.983-24.062c-1.59-3.833-5.988-5.652-9.82-4.061c-3.833,1.59-5.652,5.988-4.061,9.821l9.983,24.062
			c1.199,2.892,3.997,4.637,6.944,4.637c0.96,0,1.936-0.185,2.877-0.576C177.472,55.898,179.29,51.501,177.699,47.667z"/>
	</g>
</g>
<g>
	<g>
		<path d="M492.684,158.448c-1.581-3.837-5.974-5.666-9.811-4.084l-21.505,8.864c-1.08-0.157-2.183-0.242-3.306-0.242H439.55
			c-16.571-32.649-41.516-60.314-72.428-80.188C333.989,61.496,295.564,50.237,256,50.237s-77.989,11.259-111.122,32.561
			c-30.912,19.874-55.857,47.539-72.428,80.188H53.938c-1.123,0-2.226,0.085-3.306,0.242l-21.505-8.864
			c-3.836-1.582-8.229,0.247-9.811,4.084c-1.582,3.837,0.247,8.229,4.084,9.811l11.602,4.781c-2.486,3.66-3.941,8.075-3.941,12.823
			c0,12.615,10.263,22.878,22.878,22.878h1.764c-3.627,15.428-5.467,31.281-5.467,47.259c0,113.459,92.305,205.763,205.763,205.763
			c33.68,0,67.106-8.33,96.665-24.089c3.662-1.953,5.049-6.505,3.096-10.166c-1.953-3.662-6.505-5.048-10.166-3.096
			c-27.391,14.604-58.371,22.323-89.594,22.323c-105.171,0-190.733-85.563-190.733-190.733c0-16.009,1.985-31.879,5.904-47.259
			h20.03c0,11.403-0.727,22.928,2.147,34.079c7.656,29.686,35.304,51.088,65.935,51.088c28.681,0,55.147-19.324,64.474-46.475
			c4.313-12.557,3.608-25.636,3.608-38.692h57.269v17.084c0,33.826,26.174,63.447,59.728,67.572c2.771,0.341,5.563,0.51,8.355,0.51
			c28.586,0,55.143-19.254,64.469-46.33c2.408-6.991,3.614-14.36,3.614-21.753v-17.084h20.03c3.92,15.379,5.905,31.25,5.905,47.259
			c0,30.467-6.968,59.576-20.708,86.52c-13.11,25.706-32.258,48.499-55.373,65.914c-3.315,2.498-3.978,7.209-1.48,10.524
			c2.497,3.315,7.209,3.978,10.524,1.48c24.927-18.78,45.577-43.362,59.719-71.089c14.83-29.078,22.35-60.485,22.35-93.348
			c0-15.978-1.841-31.83-5.467-47.259h1.764c12.615,0,22.878-10.263,22.878-22.878c0-4.748-1.455-9.163-3.942-12.823l11.602-4.781
			C492.438,166.677,494.266,162.286,492.684,158.448z M458.062,193.712h-44.776c-4.029,0-7.515,3.49-7.515,7.515v24.599
			c0,5.325-0.805,10.674-2.39,15.759c-6.727,21.583-26.896,37.294-50.664,37.294s-43.937-15.712-50.664-37.294
			c-1.587-5.092-2.39-10.425-2.39-15.759v-24.599c0-4.035-3.48-7.515-7.515-7.515H219.85c-4.071,0-7.515,3.456-7.515,7.515v24.599
			c0,5.334-0.823,10.662-2.39,15.759c-6.727,21.583-26.896,37.294-50.664,37.294c-23.768,0-43.937-15.712-50.664-37.294
			c-1.585-5.085-2.39-10.432-2.39-15.759v-24.599c0-4.077-3.436-7.515-7.515-7.515H65.419h-11.48c-4.327,0-7.848-3.521-7.848-7.848
			c0-3.166,1.889-5.894,4.595-7.134c0.998-0.045,1.974-0.275,2.867-0.695c0.129-0.006,0.257-0.02,0.388-0.02h91.424
			c4.15,0,7.515-3.365,7.515-7.515c0-0.166-0.005-0.333-0.016-0.5c-0.003-0.066-0.014-0.131-0.02-0.197
			c-0.004-0.045-0.008-0.089-0.013-0.134c-0.36-3.815-3.563-6.803-7.473-6.803c-0.46,0-0.91,0.041-1.347,0.12H89.447
			c15.279-27.318,37.063-50.513,63.559-67.547C183.709,75.7,219.323,65.266,256,65.266S328.291,75.7,358.994,95.439
			c26.495,17.034,48.28,40.228,63.559,67.546H176.762c-0.437-0.079-0.887-0.12-1.347-0.12c-3.909,0-7.111,2.987-7.473,6.801
			c-0.006,0.055-0.01,0.111-0.015,0.166c-0.006,0.077-0.018,0.152-0.021,0.23c-0.007,0.14-0.011,0.29-0.013,0.437
			c0,4.15,3.365,7.515,7.515,7.515h282.652c0.131,0,0.258,0.013,0.388,0.02c0.893,0.421,1.869,0.65,2.867,0.695
			c2.706,1.239,4.595,3.967,4.595,7.134C465.91,190.191,462.389,193.712,458.062,193.712z"/>
	</g>
</g>
<g>
	<g>
		<path d="M57.681,338.825c-1.6-3.829-6-5.637-9.83-4.038l-24.039,10.04c-3.829,1.599-5.638,6.001-4.039,9.83
			c1.204,2.884,3.997,4.621,6.938,4.621c0.965,0,1.947-0.187,2.893-0.583l24.039-10.04
			C57.472,347.056,59.281,342.654,57.681,338.825z"/>
	</g>
</g>
<g>
	<g>
		<path d="M174.333,454.799c-3.839-1.577-8.23,0.256-9.807,4.095l-9.899,24.097c-1.577,3.84,0.256,8.229,4.095,9.807
			c0.935,0.383,1.903,0.565,2.854,0.565c2.957,0,5.761-1.756,6.954-4.661l9.899-24.097
			C180.006,460.767,178.172,456.376,174.333,454.799z"/>
	</g>
</g>
<g>
	<g>
		<path d="M256,470.92c-4.15,0-7.515,3.365-7.515,7.515v26.051c0,4.15,3.365,7.515,7.515,7.515s7.515-3.365,7.515-7.515v-26.051
			C263.515,474.284,260.15,470.92,256,470.92z"/>
	</g>
</g>
<g>
	<g>
		<path d="M104.029,407.971c-2.935-2.935-7.693-2.935-10.627,0l-18.421,18.421c-2.935,2.935-2.935,7.693,0,10.628
			c1.467,1.467,3.39,2.201,5.313,2.201c1.923,0,3.847-0.733,5.313-2.201l18.421-18.421
			C106.964,415.664,106.964,410.906,104.029,407.971z"/>
	</g>
</g>
<g>
	<g>
		<path d="M33.566,248.485H7.515C3.365,248.485,0,251.85,0,256s3.365,7.515,7.515,7.515h26.051c4.15,0,7.515-3.365,7.515-7.515
			S37.716,248.485,33.566,248.485z"/>
	</g>
</g>
<g>
	<g>
		<path d="M104.028,93.402L85.608,74.98c-2.934-2.935-7.692-2.935-10.627,0c-2.935,2.935-2.935,7.693,0,10.627l18.42,18.422
			c1.467,1.468,3.391,2.201,5.313,2.201c1.923,0,3.847-0.733,5.313-2.201C106.963,101.094,106.963,96.336,104.028,93.402z"/>
	</g>
</g>
<g>
	<g>
		<path d="M194.801,193.711h-71.038c-4.15,0-7.515,3.365-7.515,7.515v24.598c0,23.728,19.305,43.033,43.033,43.033
			c23.729,0,43.034-19.305,43.034-43.033v-24.598C202.316,197.076,198.952,193.711,194.801,193.711z M187.287,225.824
			c0,15.442-12.563,28.004-28.005,28.004c-15.441,0-28.004-12.563-28.004-28.004v-17.083h56.008V225.824z"/>
	</g>
</g>
<g>
	<g>
		<path d="M388.235,193.712h-71.038c-4.15,0-7.515,3.365-7.515,7.515v24.598c0.001,23.728,19.306,43.033,43.034,43.033
			s43.033-19.305,43.033-43.033v-24.598C395.75,197.077,392.385,193.712,388.235,193.712z M380.722,225.824
			c0,15.442-12.563,28.004-28.004,28.004c-15.442,0-28.005-12.563-28.005-28.004v-17.083h56.008V225.824z"/>
	</g>
</g>
<g>
	<g>
		<path d="M306.458,286.503c-5.438-7.24-13.749-11.392-22.802-11.392c-6.005,0-11.731,1.851-16.601,5.357
			c-0.816,0.347-4.474,1.722-11.061,1.722c-6.545,0-10.208-1.359-11.043-1.71c-4.87-3.501-10.598-5.347-16.602-5.347
			c-8.924,0-17.449,4.256-22.802,11.384c-9,11.982-7.094,28.812,4.002,38.532c0.082,0.072,0.164,0.145,0.247,0.217
			c5.056,4.329,11.34,7.293,17.598,9.426c19.553,6.666,43.097,6.383,62.21-1.776c4.532-1.935,8.845-4.44,12.593-7.655
			c0.081-0.069,0.16-0.14,0.24-0.211C313.545,315.326,315.46,298.488,306.458,286.503z M283.197,319.195
			c-9.592,4.02-20.276,5.3-30.613,4.879c-8.113-0.332-16.273-1.733-23.79-4.877c-0.095-0.04-0.187-0.082-0.282-0.122
			c8.326-1.737,17.791-2.681,27.487-2.681c9.693,0,19.153,0.943,27.479,2.679C283.383,319.113,283.292,319.155,283.197,319.195z
			 M296.693,306.98c-11.585-3.639-25.743-5.616-40.694-5.616c-14.952,0-29.112,1.978-40.697,5.617
			c-0.979-3.824-0.289-8.043,2.262-11.439c4.395-5.851,13.011-7.071,18.857-2.68c0.083,0.062,0.166,0.122,0.252,0.18
			c2.254,1.551,8.859,4.176,19.321,4.176c10.468,0,17.095-2.643,19.36-4.204c0.083-0.058,0.166-0.117,0.247-0.178
			c2.348-1.763,5.133-2.696,8.054-2.696C292.341,290.139,298.859,298.572,296.693,306.98z"/>
	</g>
</g>
<g>
</g>
<g>
</g>
<g>
</g>
<g>
</g>
<g>
</g>
<g>
</g>
<g>
</g>
<g>
</g>
<g>
</g>
<g>
</g>
<g>
</g>
<g>
</g>
<g>
</g>
<g>
</g>
<g>
</g>
</svg>
